<?xml version="1.0" encoding="UTF-8"?>
<svg xmlns="http://www.w3.org/2000/svg" xmlns:xlink="http://www.w3.org/1999/xlink" width="50pt" height="50pt" viewBox="0 0 50 50" version="1.1">
<defs>
<linearGradient id="linear0" gradientUnits="userSpaceOnUse" x1="200.999" y1="0" x2="200.999" y2="401.998" gradientTransform="matrix(0.0878427,0.0880544,-0.124229,0.12393,32.493517,-17.698839)">
<stop offset="0" style="stop-color:rgb(100%,0%,97.647059%);stop-opacity:1;"/>
<stop offset="1" style="stop-color:rgb(0%,89.411765%,100%);stop-opacity:1;"/>
</linearGradient>
</defs>
<g id="surface1">
<path style=" stroke:none;fill-rule:nonzero;fill:url(#linear0);" d="M 44.457031 23.722656 C 43.796875 23.058594 42.992188 22.726562 42.042969 22.726562 L 40.910156 22.726562 L 40.910156 15.910156 C 40.910156 11.554688 39.347656 7.8125 36.222656 4.6875 C 33.097656 1.5625 29.355469 0 25 0 C 20.644531 0 16.902344 1.5625 13.777344 4.6875 C 10.652344 7.8125 9.089844 11.554688 9.089844 15.910156 L 9.089844 22.726562 L 7.953125 22.726562 C 7.007812 22.726562 6.203125 23.058594 5.539062 23.722656 C 4.878906 24.382812 4.546875 25.1875 4.546875 26.136719 L 4.546875 46.589844 C 4.546875 47.539062 4.878906 48.34375 5.539062 49.003906 C 6.203125 49.667969 7.007812 50 7.953125 50 L 42.042969 50 C 42.992188 50 43.796875 49.667969 44.460938 49.003906 C 45.121094 48.34375 45.453125 47.539062 45.453125 46.589844 L 45.453125 26.136719 C 45.453125 25.1875 45.121094 24.382812 44.457031 23.722656 Z M 34.089844 22.726562 L 15.910156 22.726562 L 15.910156 15.910156 C 15.910156 13.398438 16.796875 11.257812 18.574219 9.480469 C 20.347656 7.707031 22.492188 6.820312 25 6.820312 C 27.511719 6.820312 29.652344 7.707031 31.425781 9.480469 C 33.203125 11.257812 34.089844 13.398438 34.089844 15.910156 Z M 34.089844 22.726562 "/>
</g>
</svg>
