<?xml version="1.0" encoding="UTF-8"?>
<svg xmlns="http://www.w3.org/2000/svg" xmlns:xlink="http://www.w3.org/1999/xlink" width="50pt" height="50pt" viewBox="0 0 50 50" version="1.1">
<defs>
<linearGradient id="linear0" gradientUnits="userSpaceOnUse" x1="213.334" y1="21.334" x2="213.334" y2="405.333" gradientTransform="matrix(0.0828488,0.0828793,-0.128646,0.128598,35.040109,-20.565452)">
<stop offset="0" style="stop-color:rgb(100%,0%,97.647059%);stop-opacity:1;"/>
<stop offset="1" style="stop-color:rgb(0%,89.411765%,100%);stop-opacity:1;"/>
</linearGradient>
</defs>
<g id="surface1">
<path style=" stroke:none;fill-rule:nonzero;fill:url(#linear0);" d="M 41.25 30 C 38.441406 30 35.960938 31.355469 34.359375 33.421875 L 17.433594 26.910156 C 17.449219 26.691406 17.5 26.476562 17.5 26.25 C 17.5 25.828125 17.433594 25.425781 17.375 25.023438 L 34.71875 17.015625 C 36.324219 18.832031 38.644531 20 41.25 20 C 46.074219 20 50 16.074219 50 11.25 C 50 6.425781 46.074219 2.5 41.25 2.5 C 36.425781 2.5 32.5 6.425781 32.5 11.25 C 32.5 11.671875 32.566406 12.074219 32.625 12.476562 L 15.28125 20.484375 C 13.675781 18.667969 11.355469 17.5 8.75 17.5 C 3.925781 17.5 0 21.425781 0 26.25 C 0 31.074219 3.925781 35 8.75 35 C 11.558594 35 14.039062 33.644531 15.640625 31.578125 L 32.566406 38.089844 C 32.550781 38.308594 32.5 38.523438 32.5 38.75 C 32.5 43.574219 36.425781 47.5 41.25 47.5 C 46.074219 47.5 50 43.574219 50 38.75 C 50 33.925781 46.074219 30 41.25 30 Z M 41.25 30 "/>
</g>
</svg>
