<?xml version="1.0" encoding="UTF-8"?>
<svg xmlns="http://www.w3.org/2000/svg" xmlns:xlink="http://www.w3.org/1999/xlink" width="50pt" height="50pt" viewBox="0 0 50 50" version="1.1">
<defs>
<linearGradient id="linear0" gradientUnits="userSpaceOnUse" x1="366" y1="396" x2="366" y2="416" gradientTransform="matrix(0.0689097,0.0691969,-2.503001,2.492614,1016.055469,-1012.084739)">
<stop offset="0" style="stop-color:rgb(100%,0%,97.647059%);stop-opacity:1;"/>
<stop offset="1" style="stop-color:rgb(0%,89.411765%,100%);stop-opacity:1;"/>
</linearGradient>
<linearGradient id="linear1" gradientUnits="userSpaceOnUse" x1="256" y1="0" x2="256" y2="512" gradientTransform="matrix(0.0690951,0.0690117,-0.0969528,0.09707,31.981528,-17.306844)">
<stop offset="0" style="stop-color:rgb(100%,0%,97.647059%);stop-opacity:1;"/>
<stop offset="1" style="stop-color:rgb(0%,89.411765%,100%);stop-opacity:1;"/>
</linearGradient>
<linearGradient id="linear2" gradientUnits="userSpaceOnUse" x1="413.87" y1="415.088" x2="413.87" y2="466.002" gradientTransform="matrix(-0.0688938,-0.0692127,0.980869,-0.976348,-378.493116,483.695205)">
<stop offset="0" style="stop-color:rgb(0%,89.803922%,100%);stop-opacity:1;"/>
<stop offset="1" style="stop-color:rgb(100%,0%,97.647059%);stop-opacity:1;"/>
</linearGradient>
</defs>
<g id="surface1">
<path style=" stroke:none;fill-rule:nonzero;fill:url(#linear0);" d="M 35.742188 38.671875 C 35.203125 38.671875 34.765625 39.109375 34.765625 39.648438 C 34.765625 40.1875 35.203125 40.625 35.742188 40.625 C 36.28125 40.625 36.71875 40.1875 36.71875 39.648438 C 36.71875 39.109375 36.28125 38.671875 35.742188 38.671875 Z M 35.742188 38.671875 "/>
<path style=" stroke:none;fill-rule:nonzero;fill:url(#linear1);" d="M 38.148438 35.515625 L 33.503906 33.96875 L 31.839844 30.632812 C 33.339844 29.105469 34.382812 27.085938 34.734375 24.976562 L 34.941406 23.730469 L 36.71875 23.730469 C 38.335938 23.730469 39.648438 22.417969 39.648438 20.800781 L 39.648438 14.648438 C 39.648438 6.570312 33.078125 0 25 0 C 16.902344 0 10.351562 6.550781 10.351562 14.648438 L 10.351562 20.800781 C 10.351562 22.074219 11.167969 23.160156 12.304688 23.5625 L 12.304688 24.707031 C 12.304688 26.324219 13.617188 27.636719 15.234375 27.636719 L 16.09375 27.636719 C 16.515625 28.554688 17.0625 29.40625 17.730469 30.171875 C 17.867188 30.332031 18.011719 30.484375 18.160156 30.636719 L 16.496094 33.96875 L 11.851562 35.515625 C 6.457031 37.3125 2.539062 42.996094 2.539062 49.023438 C 2.539062 49.5625 2.976562 50 3.515625 50 L 46.484375 50 C 47.023438 50 47.460938 49.5625 47.460938 49.023438 C 47.460938 42.996094 43.542969 37.3125 38.148438 35.515625 Z M 37.695312 20.800781 C 37.695312 21.339844 37.257812 21.777344 36.71875 21.777344 L 35.226562 21.777344 C 35.476562 19.855469 35.640625 17.808594 35.707031 15.792969 C 35.710938 15.734375 35.710938 15.679688 35.714844 15.625 L 37.695312 15.625 Z M 13.28125 21.777344 C 12.742188 21.777344 12.304688 21.339844 12.304688 20.800781 L 12.304688 15.625 L 14.285156 15.625 C 14.289062 15.726562 14.292969 15.828125 14.296875 15.933594 C 14.296875 15.9375 14.296875 15.9375 14.296875 15.941406 C 14.296875 15.941406 14.296875 15.941406 14.296875 15.945312 C 14.367188 17.902344 14.53125 19.898438 14.773438 21.777344 Z M 15.234375 25.683594 C 14.695312 25.683594 14.257812 25.246094 14.257812 24.707031 L 14.257812 23.730469 L 15.058594 23.730469 L 15.265625 24.976562 C 15.304688 25.214844 15.355469 25.449219 15.410156 25.683594 Z M 14.257812 13.671875 L 12.34375 13.671875 C 12.835938 7.125 18.296875 1.953125 25 1.953125 C 31.671875 1.953125 37.15625 7.125 37.65625 13.671875 L 35.742188 13.671875 C 35.671875 8.277344 31.277344 3.90625 25.875 3.90625 L 24.125 3.90625 C 18.722656 3.90625 14.328125 8.277344 14.257812 13.671875 Z M 24.125 5.859375 L 25.875 5.859375 C 30.25 5.859375 33.792969 9.4375 33.789062 13.808594 C 33.789062 14.117188 33.785156 14.382812 33.78125 14.628906 C 33.78125 14.632812 33.78125 14.632812 33.78125 14.636719 L 32.558594 14.464844 C 29.242188 13.988281 26.109375 12.421875 23.738281 10.050781 C 23.554688 9.867188 23.304688 9.765625 23.046875 9.765625 C 20.425781 9.765625 17.914062 10.960938 16.253906 12.980469 C 16.664062 9.003906 20.023438 5.859375 24.125 5.859375 Z M 17.4375 25.683594 C 16.945312 24.058594 16.386719 19.273438 16.265625 16.207031 L 17.578125 14.453125 C 18.785156 12.84375 20.664062 11.84375 22.660156 11.730469 C 25.289062 14.230469 28.691406 15.882812 32.285156 16.394531 L 33.722656 16.601562 C 33.625 18.640625 33.429688 20.6875 33.148438 22.570312 C 33.148438 22.570312 33.148438 22.570312 33.148438 22.574219 C 33.058594 23.175781 32.988281 23.566406 32.808594 24.65625 C 32.289062 27.757812 29.976562 30.5625 26.917969 31.324219 C 25.664062 31.640625 24.335938 31.640625 23.082031 31.324219 C 21.171875 30.847656 19.421875 29.527344 18.292969 27.636719 L 20.285156 27.636719 C 20.6875 28.773438 21.773438 29.589844 23.046875 29.589844 L 25 29.589844 C 26.617188 29.589844 27.929688 28.277344 27.929688 26.660156 C 27.929688 25.042969 26.617188 23.730469 25 23.730469 L 23.046875 23.730469 C 21.746094 23.730469 20.675781 24.570312 20.285156 25.683594 Z M 22.964844 33.300781 C 23.632812 33.445312 24.316406 33.515625 25 33.515625 C 25.535156 33.515625 26.070312 33.472656 26.597656 33.382812 L 24.871094 35.210938 Z M 23.527344 36.628906 L 20.429688 39.90625 C 19.578125 38.273438 18.847656 36.574219 18.246094 34.835938 L 19.40625 32.507812 Z M 30.425781 32.175781 L 31.753906 34.835938 C 31.152344 36.578125 30.421875 38.277344 29.566406 39.90625 L 26.253906 36.589844 Z M 22.070312 26.660156 C 22.070312 26.121094 22.507812 25.683594 23.046875 25.683594 L 25 25.683594 C 25.539062 25.683594 25.976562 26.121094 25.976562 26.660156 C 25.976562 27.199219 25.539062 27.636719 25 27.636719 L 23.046875 27.636719 C 22.507812 27.636719 22.070312 27.199219 22.070312 26.660156 Z M 4.53125 48.046875 C 4.917969 43.210938 8.136719 38.8125 12.472656 37.367188 L 16.582031 35.996094 C 17.335938 38.078125 18.269531 40.105469 19.359375 42.027344 C 19.363281 42.03125 19.363281 42.03125 19.367188 42.035156 C 20.164062 43.441406 21.066406 44.816406 22.039062 46.117188 L 23.242188 48.046875 Z M 25 47.175781 L 23.675781 45.050781 C 23.660156 45.027344 23.644531 45.003906 23.628906 44.980469 C 22.835938 43.925781 22.101562 42.824219 21.429688 41.691406 L 24.910156 38.011719 L 28.582031 41.679688 C 27.902344 42.816406 27.164062 43.925781 26.371094 44.980469 C 26.324219 45.042969 26.390625 44.945312 25 47.175781 Z M 26.757812 48.046875 L 27.960938 46.117188 C 28.9375 44.808594 29.84375 43.425781 30.652344 42.003906 C 30.65625 41.996094 30.660156 41.988281 30.667969 41.976562 C 31.746094 40.070312 32.671875 38.0625 33.417969 35.996094 L 37.527344 37.367188 C 41.863281 38.8125 45.082031 43.210938 45.46875 48.046875 Z M 26.757812 48.046875 "/>
<path style=" stroke:none;fill-rule:nonzero;fill:url(#linear2);" d="M 42.535156 44.09375 C 41.882812 42.789062 40.925781 41.628906 39.769531 40.738281 C 39.339844 40.410156 38.730469 40.488281 38.398438 40.917969 C 38.070312 41.34375 38.152344 41.957031 38.578125 42.285156 C 39.5 42.996094 40.265625 43.925781 40.785156 44.96875 C 41.027344 45.449219 41.613281 45.644531 42.097656 45.40625 C 42.578125 45.164062 42.773438 44.578125 42.535156 44.09375 Z M 42.535156 44.09375 "/>
</g>
</svg>
