<?xml version="1.0" encoding="UTF-8"?>
<svg xmlns="http://www.w3.org/2000/svg" xmlns:xlink="http://www.w3.org/1999/xlink" width="90pt" height="120pt" viewBox="0 0 130 95" version="1.1">
<defs>
<linearGradient id="linear0" gradientUnits="userSpaceOnUse" x1="256" y1="106" x2="256" y2="406" gradientTransform="matrix(0.179871,0.130958,-0.432813,0.31746,129.753211,-67.466075)">
<stop offset="0" style="stop-color:rgb(98.431373%,0.392157%,94.901961%);stop-opacity:1;"/>
<stop offset="1" style="stop-color:rgb(0%,89.411765%,100%);stop-opacity:1;"/>
</linearGradient>
</defs>
<g id="surface1">
<path style=" stroke:none;fill-rule:nonzero;fill:url(#linear0);" d="M 110.433594 42.132812 C 108.722656 34.148438 99.25 28.015625 87.851562 28.015625 C 83.5625 28.015625 79.441406 28.882812 75.867188 30.5 C 70.429688 23.824219 60.640625 19.667969 49.765625 19.667969 C 32.964844 19.667969 19.296875 29.65625 19.296875 41.933594 C 19.296875 42.007812 19.296875 42.089844 19.300781 42.164062 C 8.503906 43.492188 0 50.371094 0 58.632812 C 0 67.839844 10.503906 75.332031 23.105469 75.332031 L 106.894531 75.332031 C 119.496094 75.332031 130 67.839844 130 58.632812 C 130 50.300781 121.359375 43.378906 110.433594 42.132812 Z M 110.433594 42.132812 "/>
</g>
</svg>
