<svg height="512" viewBox="0 0 74 74" width="512" xmlns="http://www.w3.org/2000/svg"><g id="Numbers"><text fill="rgb(0,0,0)" font-family="ArialMT, Arial" font-size="18" transform="translate(31.994 -266.544)">7<tspan x="-5.005" y="124">17</tspan><tspan x="-5.005" y="248">27</tspan><tspan x="-5.005" y="372">37</tspan><tspan x="-5.005" y="496">47</tspan><tspan x="-5.005" y="620">57</tspan><tspan x="-5.005" y="744">67</tspan><tspan x="-5.005" y="868">77</tspan><tspan x="-5.005" y="992">87</tspan><tspan x="-5.005" y="1116">97</tspan><tspan x="-10.011" y="1240">107</tspan><tspan letter-spacing="-.074em" x="-9.343" y="1364">1</tspan><tspan x="-.668" y="1364">17</tspan><tspan x="-10.011" y="1488">127</tspan><tspan x="-10.011" y="1612">137</tspan><tspan x="-10.011" y="1736">147</tspan><tspan x="-10.011" y="1860">157</tspan><tspan x="-10.011" y="1984">167</tspan><tspan x="-10.011" y="2108">177</tspan><tspan x="-10.011" y="2232">187</tspan><tspan x="-10.011" y="2356">197</tspan><tspan x="-10.011" y="2480">207</tspan><tspan x="-10.011" y="2604">217</tspan><tspan x="-10.011" y="2728">227</tspan><tspan x="-10.011" y="2852">237</tspan><tspan x="-10.011" y="2976">247</tspan><tspan x="-10.011" y="3100">257</tspan><tspan x="-10.011" y="3224">267</tspan><tspan x="-10.011" y="3348">277</tspan><tspan x="-10.011" y="3472">287</tspan><tspan x="-10.011" y="3596">297</tspan></text></g><g id="Icons"><path d="m9.046 24.228a1 1 0 0 1 -1-1v-12.137a1 1 0 0 1 2 0v12.137a1 1 0 0 1 -1 1z"/><path d="m9.046 36.364a1 1 0 0 1 -1-1v-12.136a1 1 0 0 1 2 0v12.136a1 1 0 0 1 -1 1z"/><path d="m9.046 48.5a1 1 0 0 1 -1-1v-12.136a1 1 0 0 1 2 0v12.136a1 1 0 0 1 -1 1z"/><path d="m9.046 60.638a1 1 0 0 1 -1-1v-12.138a1 1 0 0 1 2 0v12.138a1 1 0 0 1 -1 1z"/><path d="m31.009 20.182c-13.091 0-22.963-3.908-22.963-9.091s9.872-9.091 22.963-9.091 22.962 3.908 22.962 9.091-9.871 9.091-22.962 9.091zm0-16.182c-12.354 0-20.963 3.737-20.963 7.091s8.609 7.091 20.963 7.091 20.962-3.737 20.962-7.091-8.609-7.091-20.962-7.091z"/><path d="m52.971 24.228a1 1 0 0 1 -1-1v-12.137a1 1 0 0 1 2 0v12.137a1 1 0 0 1 -1 1z"/><path d="m42.649 31.09a1 1 0 0 1 -.223-1.975c5.8-1.337 9.544-3.647 9.544-5.885a1 1 0 0 1 2 0c0 3.353-4.044 6.208-11.095 7.834a.968.968 0 0 1 -.226.026z"/><path d="m25.681 32.08c-.031 0-.06 0-.091 0-.97-.087-1.941-.2-2.968-.357a1 1 0 1 1 .3-1.978c.988.147 1.922.259 2.853.343a1 1 0 0 1 -.089 2z"/><path d="m15.77 30.05a1 1 0 0 1 -.335-.058c-4.762-1.692-7.385-4.092-7.385-6.762a1 1 0 0 1 2 0c0 1.708 2.263 3.532 6.054 4.877a1 1 0 0 1 -.334 1.943z"/><path d="m32.679 32.3a1 1 0 0 1 -.029-2c1.066-.031 2.021-.082 2.918-.156a1 1 0 1 1 .164 1.993c-.932.077-1.921.13-3.023.162z"/><path d="m52.971 36.364a1 1 0 0 1 -1-1v-12.136a1 1 0 0 1 2 0v12.136a1 1 0 0 1 -1 1z"/><path d="m31.009 44.456c-13.091 0-22.963-3.909-22.963-9.092a1 1 0 0 1 2 0c0 3.354 8.609 7.092 20.963 7.092s20.962-3.738 20.962-7.092a1 1 0 0 1 2 0c0 5.183-9.871 9.092-22.962 9.092z"/><path d="m31.007 56.589c-12.8 0-22.638-3.79-22.953-8.825a1.65 1.65 0 0 1 -.016-.253 1 1 0 0 1 2 0c.164 3.4 8.81 7.078 20.969 7.078a50.663 50.663 0 0 0 12.431-1.444 1 1 0 0 1 .5 1.936 52.655 52.655 0 0 1 -12.931 1.508z"/><path d="m52.971 48.5a1 1 0 0 1 -1-1v-12.136a1 1 0 0 1 2 0v12.136a1 1 0 0 1 -1 1z"/><path d="m31.007 68.737c-13.1 0-22.969-3.912-22.969-9.1a1 1 0 0 1 2 0c0 3.358 8.611 7.1 20.969 7.1a48.489 48.489 0 0 0 12.971-1.612 1 1 0 1 1 .546 1.923 50.435 50.435 0 0 1 -13.517 1.689z"/><path d="m52.976 49.29a1 1 0 0 1 -1-1v-.779a1 1 0 1 1 2 0v.779a1 1 0 0 1 -1 1z"/><path d="m53.6 72a12.363 12.363 0 1 1 12.362-12.362 12.377 12.377 0 0 1 -12.362 12.362zm0-22.725a10.363 10.363 0 1 0 10.362 10.363 10.375 10.375 0 0 0 -10.362-10.363z"/><path d="m49.936 66.275a1 1 0 0 1 -.986-1.169l.612-3.561-2.588-2.522a1 1 0 0 1 .554-1.706l3.572-.517 1.6-3.24a1.041 1.041 0 0 1 1.793 0l1.6 3.24 3.575.52a1 1 0 0 1 .555 1.706l-2.588 2.522.61 3.561a1 1 0 0 1 -1.445 1.052l-3.2-1.682-3.2 1.682a1.008 1.008 0 0 1 -.464.114zm-.116-7.27 1.514 1.474a1 1 0 0 1 .287.886l-.357 2.082 1.871-.983a1 1 0 0 1 .93 0l1.87.983-.357-2.082a1 1 0 0 1 .287-.886l1.514-1.474-2.091-.3a1 1 0 0 1 -.753-.547l-.935-1.9-.936 1.9a1 1 0 0 1 -.753.547z"/></g></svg>